# xmcd
#
# Track frame offsets:
#	150
#	11644
#	24910
#	41869
#	57050
#	70756
#	86169
#	88900
#	101936
#	116364
#	127179
#	137213
#	153340
#	181416
#
# Disc length: 2716 seconds
#
# Revision: 0
# Processed by: cddbd v1.5.1PL0 Copyright (c) Steve Scherf et al.
# Submitted via: dBpowerAMP V4.0
#
DISCID=c10a9a0e
DTITLE=The Corb Lund Band - Five Dollar Bill
DYEAR=2004
DGENRE=Country
TTITLE0=Five Dollar Bill
TTITLE1=Expectation and the Blues
TTITLE2=Short Native Grasses (Prairies of Alberta)
TTITLE3=No Roads Here
TTITLE4=Apocalyptic Modified Blues
TTITLE5=Heavy and Leaving
TTITLE6=Intro/Jack Of Diamonds
TTITLE7=Time To Switch To Whiskey
TTITLE8=Roughest Neck Around
TTITLE9=Daughter Dont You Marry No Guitar Picker
TTITLE10=(Gonna) Shine Up My Boots
TTITLE11=Buckin Horse Rider
TTITLE12=She Wont Come To Me
TTITLE13=DATA
EXTD=
EXTT0=
EXTT1=
EXTT2=
EXTT3=
EXTT4=
EXTT5=
EXTT6=
EXTT7=
EXTT8=
EXTT9=
EXTT10=
EXTT11=
EXTT12=
EXTT13=
PLAYORDER=
